PathFileType	4	(X/Y/Z)	Patient4_TMGait_0pt4_03_left_37.trc.trc
DataRate	CameraRate	NumFrames	NumMarkers	Units	OrigDataRate	OrigDataStartFrame	OrigNumFrames
75.675675675676	75.675675675676	4	33	mm	75.675675675676	106	       141
Frame#	Time	Sacral			L.Shoulder			Chest			R.Shoulder			Neck			R.ASIS			L.ASIS			R.Thigh.Superior			R.Thigh.Lateral			R.Thigh.Inferior			R.Patella			L.Thigh.Superior			L.Thigh.Lateral			L.Thigh.Inferior			L.Patella			L.Shank.Superior			L.Shank.Lateral			L.Shank.Inferior			R.Shank.Superior			R.Shank.Lateral			R.Shank.Inferior			R.Heel			R.Midfoot.Superior			R.Midfoot.Lateral			R.Toe			L.Heel			L.Midfoot.Lateral			L.Midfoot.Superior			L.Toe			L.Elbow			L.Wrist			R.Elbow			R.Wrist			
		X1	Y1	Z1	X2	Y2	Z2	X3	Y3	Z3	X4	Y4	Z4	X5	Y5	Z5	X6	Y6	Z6	X7	Y7	Z7	X8	Y8	Z8	X9	Y9	Z9	X10	Y10	Z10	X11	Y11	Z11	X12	Y12	Z12	X13	Y13	Z13	X14	Y14	Z14	X15	Y15	Z15	X16	Y16	Z16	X17	Y17	Z17	X18	Y18	Z18	X19	Y19	Z19	X20	Y20	Z20	X21	Y21	Z21	X22	Y22	Z22	X23	Y23	Z23	X24	Y24	Z24	X25	Y25	Z25	X26	Y26	Z26	X27	Y27	Z27	X28	Y28	Z28	X29	Y29	Z29	X30	Y30	Z30	X31	Y31	Z31	X32	Y32	Z32	X33	Y33	Z33	

106	50.437500000000	885.912265878736	1005.081355680029	538.905609806241	1026.579213620495	1437.868313814357	344.039865214138	1149.818713114833	1374.697153024054	492.698552146852	1084.576517121130	1441.813205409543	676.672286422216	1023.292203563581	1499.538442081054	502.783274415367	1125.010938690034	945.582602656545	633.407655711902	1084.590758752139	970.394816062527	361.966877595230	1147.204195366738	739.002747922565	600.900239495577	1060.577266532185	633.631984719716	666.250270872987	1128.352695264729	577.068755670119	583.580464705805	1121.086471821492	491.123556518070	589.257507169506	1172.524641866535	789.837639872928	374.611046852135	1123.131266824446	662.945869051640	294.718425083078	1234.356401427584	604.682653102240	340.493122662956	1253.447684397045	522.928805546287	329.228518340468	1204.328873077503	449.034246373698	322.260638623105	1079.082615419822	368.830033372857	280.297815029176	1112.754181562669	239.103108589177	325.085675583630	1090.515756386587	402.956619041699	595.549432171965	1017.300198755329	301.086709808832	658.843804654357	1053.643723092051	205.919983240971	591.489337605012	914.171938579052	43.578897355548	562.948878729324	1086.183923504954	96.384654127414	594.608891562861	999.282247778601	37.159837748875	635.486234013815	1207.324898769643	42.522992453756	618.057996516889	958.546511373360	115.007774257089	371.685757596992	1018.029688831261	95.085182643761	283.452604000025	1116.427421785512	136.101847742338	298.329970490004	1221.770651621041	58.177412829978	253.479178771767	974.950498886205	1082.732547736030	244.976980399988	1012.902706591193	825.378692236987	231.725015658842	1141.643339307080	1102.760260670333	812.758678422570	1339.496354539338	933.571489851422	800.415610491882	
107	50.450714285714	884.777260057943	1005.618513388146	539.785029893853	1025.732802504111	1437.992430865976	344.811062975383	1149.876151528465	1374.231134560524	492.445671002870	1086.282974368337	1441.536283467569	676.968824152313	1023.896279612461	1499.447858760469	503.713760254746	1124.057019993830	945.130406103192	633.112439911861	1082.653349752889	970.480396914113	361.840318208736	1144.319843641139	738.334743080694	600.374275508493	1057.212148635354	633.568401137075	666.363788725910	1123.881087785086	576.567769180941	583.302464299152	1116.083169149902	490.915413251183	589.048785073891	1170.075426094706	790.023674333729	374.907634019212	1121.264360926803	663.118683884163	294.790366547585	1231.851858167244	604.927697724638	341.979927379945	1252.258649995034	525.090548118910	330.483732653677	1206.988584889736	450.830908191902	322.551544725656	1087.479725921324	363.274480396709	279.430652971291	1129.480860336948	235.451051302013	323.359375449488	1085.435270263650	402.830929749327	595.473131190945	1012.290185446624	300.988695505052	658.917257627267	1048.387181875909	205.827209611343	591.474743917593	908.813882462952	43.521246831883	562.989954904949	1080.827654043617	96.352770037172	594.623080233808	993.936380412219	37.120683881982	635.541802025574	1201.965453757135	42.536364082532	618.081817858505	983.930761898091	100.968685181042	368.811165504228	1044.715341257122	85.889887654473	280.455974734663	1140.196661029539	133.052662625195	295.795622636731	1250.498642225920	62.672695200378	250.406588899347	965.779877600134	1084.139063963920	246.504198135924	995.622165536880	825.841970838254	235.503028697229	1151.088032134829	1104.203997251811	812.973589237111	1357.090612384191	945.518580583914	797.993471558129	
108	50.463928571429	883.651835136475	1006.089149276440	540.486798104595	1024.973012917206	1438.064959358836	345.393753573866	1149.979134071285	1373.667682525667	492.006895743109	1088.012473552946	1441.142890768046	677.068433181553	1024.538067552676	1499.282505414345	504.440259513022	1123.130237201890	944.654550533917	632.657282719995	1080.775882825425	970.398968103080	361.546339450084	1141.467758761922	737.625460824177	599.837169786133	1053.842834573541	633.497926122658	666.448212358157	1119.371985525672	576.065105491260	583.010152234742	1111.023746729825	490.713496107367	588.838137535279	1167.299867473868	789.655380948554	375.211938518921	1118.946609614582	662.925357289016	294.737966322739	1228.629939599068	604.507821735663	343.682730070136	1250.302048329918	526.770647662903	331.956431485119	1208.975114630915	452.447245119503	322.996607627724	1095.860681422543	357.782983457090	278.379692448330	1146.005665812032	232.411591078386	321.751354989432	1080.312365196133	402.722251088997	595.405198763171	1007.248004343271	300.885516160178	659.000244601935	1043.108528388415	205.733323488147	591.454444954638	903.449122754822	43.455821782056	563.024669054008	1075.464632628816	96.320003878501	594.631525700035	988.588561750789	37.079678749060	635.591595790965	1196.609923032300	42.560272910105	618.109427296835	1009.625574233553	88.187080085462	365.751517917216	1071.779187769335	77.734626987636	277.568248904426	1163.971239479189	130.827217989397	293.578552175793	1278.889199437858	67.983144374433	248.322536431621	956.699981976923	1085.715613040777	247.936002089809	979.169296912380	826.773749608534	239.353742290272	1160.161861562868	1105.651318840973	812.820890004841	1373.754782233385	957.924077452889	795.085076163927	
109	50.477142857143	882.560134222280	1006.491218856665	541.025446301608	1024.294081978574	1438.098468827429	345.773096637873	1150.112719132000	1373.028494127978	491.379927242924	1089.731400664123	1440.649682581025	676.961966535390	1025.190155037084	1499.058197970929	504.936873704132	1122.246621201042	944.163854098664	632.042721890247	1078.962935402360	970.167382611977	361.087286620600	1138.682775866077	736.878457647832	599.304413369188	1050.482530260032	633.423582301705	666.495070828026	1114.849082921861	575.565025696774	582.706460962146	1105.928327401268	490.521884432701	588.621800219643	1164.247305082545	788.810287628954	375.519495057900	1116.257721890517	662.429693255364	294.545854325013	1224.853013272523	603.551272887669	345.465349555235	1247.736575360687	528.037667579316	333.553145950285	1210.366776388950	453.924829497133	323.566635479366	1104.134888100160	352.570123129320	277.192769165731	1162.026189017516	230.136908728125	320.359508782240	1075.156232162620	402.632700729580	595.340917724751	1002.175421064311	300.788040774181	659.090259875537	1037.813606592987	205.645198403935	591.431745711276	898.080332039354	43.385451501368	563.056552749975	1070.095603432442	96.289566808589	594.636974720169	983.238898579598	37.039111378427	635.637439374524	1191.257037004534	42.598059176655	618.139572287528	1035.054657806056	77.053294245075	362.690235722682	1098.666832409719	70.849956612990	274.986600816415	1187.297636413444	129.525323949171	291.827529316357	1306.420016949604	73.995405446502	247.434035333965	947.836092769664	1087.439704877701	249.311006320824	963.546811795677	828.075520251407	243.245154290648	1168.867712296592	1107.086585588659	812.283387270006	1389.422904405704	970.674129006268	791.732900224383	
